<?xml version="1.0" standalone="no"?>
<!DOCTYPE svg PUBLIC "-//W3C//DTD SVG 20010904//EN"
 "http://www.w3.org/TR/2001/REC-SVG-20010904/DTD/svg10.dtd">
<svg version="1.0" xmlns="http://www.w3.org/2000/svg"
 width="796.000000pt" height="1280.000000pt" viewBox="0 0 796.000000 1280.000000"
 preserveAspectRatio="xMidYMid meet">
<metadata>
Created by potrace 1.15, written by Peter Selinger 2001-2017
</metadata>
<g transform="translate(0.000000,1280.000000) scale(0.100000,-0.100000)"
fill="#000000" stroke="none">
<path d="M3775 12789 c-1087 -70 -2087 -515 -2795 -1245 -581 -598 -907 -1308
-970 -2107 -23 -294 3 -614 75 -922 290 -1237 1322 -2230 2690 -2590 186 -49
510 -113 521 -103 2 3 11 42 20 88 18 95 18 95 -61 105 -159 21 -444 89 -630
150 -1138 372 -1994 1208 -2294 2239 -84 288 -115 514 -115 831 1 248 14 385
54 582 296 1436 1608 2557 3235 2763 352 45 783 43 1125 -6 561 -78 1096 -269
1559 -557 383 -237 743 -574 1005 -941 180 -252 351 -605 434 -896 88 -312
115 -502 116 -830 1 -283 -20 -457 -84 -717 -268 -1086 -1144 -2001 -2318
-2422 -139 -50 -377 -121 -414 -124 -22 -2 -23 7 9 -99 16 -53 31 -87 38 -85
6 3 63 19 126 35 582 156 1180 471 1634 862 129 111 376 366 478 495 429 537
671 1128 732 1790 27 294 13 554 -47 865 -171 889 -752 1700 -1593 2222 -730
453 -1639 675 -2530 617z"/>
<path d="M3805 11784 c-960 -74 -1800 -549 -2284 -1294 -137 -210 -271 -536
-320 -775 -39 -194 -45 -258 -44 -475 0 -174 4 -238 22 -335 44 -246 96 -410
195 -620 321 -677 1008 -1206 1816 -1398 109 -26 300 -61 305 -55 3 4 24 122
21 125 0 1 -44 9 -96 18 -438 74 -856 253 -1205 514 -118 89 -330 293 -422
406 -366 453 -539 1014 -482 1566 35 348 163 703 358 995 599 897 1746 1358
2886 1159 610 -107 1187 -424 1561 -858 475 -552 650 -1257 480 -1931 -190
-749 -772 -1376 -1567 -1689 -147 -58 -328 -112 -338 -101 -4 5 -25 88 -46
184 -21 96 -40 180 -42 186 -2 7 47 28 121 53 593 197 1063 594 1307 1106 324
678 194 1458 -336 2014 -323 339 -753 561 -1262 652 -169 30 -526 38 -713 15
-375 -46 -764 -186 -1054 -380 -721 -483 -1051 -1264 -859 -2031 49 -198 158
-432 281 -604 83 -117 255 -298 376 -395 276 -222 607 -375 971 -451 162 -33
163 -33 170 13 4 20 8 42 9 47 2 6 -60 23 -137 38 -652 131 -1204 541 -1453
1081 -159 347 -197 744 -104 1111 178 708 816 1276 1615 1440 210 43 547 59
745 35 847 -102 1519 -618 1739 -1335 55 -183 66 -259 65 -490 0 -236 -14
-329 -80 -525 -198 -586 -722 -1067 -1377 -1264 l-47 -14 -9 37 c-11 43 -112
500 -114 519 -1 9 27 25 73 41 185 69 368 183 513 320 435 414 520 1014 215
1508 -66 108 -261 309 -368 380 -263 176 -555 263 -878 263 -369 0 -692 -105
-972 -316 -428 -323 -612 -831 -474 -1313 114 -398 454 -728 894 -869 90 -29
259 -66 266 -59 2 2 6 17 10 33 l5 29 -93 18 c-377 72 -717 304 -900 612 -116
195 -174 455 -148 668 34 283 142 500 355 713 382 383 979 520 1520 348 117
-37 288 -122 387 -194 99 -71 245 -217 305 -305 50 -74 105 -180 137 -266 79
-210 80 -488 4 -714 -103 -305 -345 -572 -660 -731 -91 -46 -199 -87 -207 -79
-3 4 -34 129 -67 278 -54 239 -60 273 -46 282 238 154 315 447 180 684 -87
152 -278 260 -460 261 -287 1 -527 -232 -528 -510 0 -187 111 -364 283 -450
44 -22 88 -40 98 -40 28 0 31 -15 19 -93 -6 -39 -33 -223 -60 -407 -27 -184
-225 -1530 -440 -2990 -215 -1460 -412 -2799 -437 -2975 -33 -228 -51 -322
-61 -329 -10 -6 -11 -10 -3 -15 8 -6 -23 -244 -115 -870 -70 -474 -125 -863
-123 -865 5 -5 203 -35 207 -31 1 1 57 371 123 821 66 450 122 820 124 822 1
2 693 -370 1536 -827 844 -456 1541 -832 1550 -836 12 -5 -55 311 -307 1447
-267 1199 -321 1455 -310 1463 8 6 23 15 33 21 16 10 13 13 -25 33 -23 12 -42
23 -42 25 0 2 -101 457 -224 1012 -159 711 -222 1012 -215 1021 6 6 33 26 60
43 27 18 49 35 49 39 -1 3 -38 31 -83 61 l-82 55 -83 365 c-45 201 -84 385
-87 410 -2 25 -14 78 -25 119 -18 65 -160 687 -160 702 0 3 37 17 83 29 325
91 717 283 979 481 561 424 905 982 1005 1629 23 154 23 472 0 622 -79 502
-309 951 -673 1314 -469 467 -1122 758 -1828 814 -117 9 -381 11 -481 4z m495
-4002 l160 -723 -27 -34 c-65 -78 -618 -693 -621 -690 -4 3 307 2139 314 2164
3 8 6 12 9 10 2 -3 76 -330 165 -727z m370 -1661 c77 -348 139 -635 137 -637
-5 -5 -900 611 -899 620 0 4 136 161 303 348 246 275 305 336 311 321 4 -10
71 -303 148 -652z m-315 -594 c264 -181 485 -334 492 -341 9 -8 -148 -119
-654 -461 -366 -247 -672 -454 -680 -458 -11 -7 -13 -3 -8 15 3 13 57 376 120
808 63 432 117 800 120 818 l6 32 62 -42 c34 -23 278 -190 542 -371z m771
-1457 c105 -476 191 -866 191 -866 -4 -3 -1623 902 -1627 909 -3 5 274 197
615 428 368 248 622 414 624 406 2 -6 91 -401 197 -877z m-784 -573 c466 -259
844 -474 840 -478 -4 -3 -281 -145 -617 -314 -335 -169 -787 -398 -1004 -508
-380 -193 -393 -199 -387 -171 6 31 286 1938 286 1949 0 4 8 4 17 0 10 -3 399
-218 865 -478z m1318 -1826 c144 -645 260 -1177 258 -1180 -3 -8 -2538 1360
-2538 1369 0 3 451 233 1003 512 849 429 1003 504 1009 490 4 -9 125 -545 268
-1191z"/>
</g>
</svg>
